<svg width="88" height="88" viewBox="0 0 88 88" fill="none" xmlns="http://www.w3.org/2000/svg">
<mask id="mask0_6020_30263" style="mask-type:alpha" maskUnits="userSpaceOnUse" x="0" y="0" width="88" height="88">
<rect width="88" height="88" fill="#D9D9D9"/>
</mask>
<g mask="url(#mask0_6020_30263)">
<path d="M22.1413 64.1666L15.6366 70.6713C14.7083 71.5996 13.6422 71.8098 12.4383 71.302C11.2351 70.7941 10.6334 69.8869 10.6334 68.5804V16.5284C10.6334 14.8778 11.2033 13.4826 12.343 12.3429C13.4827 11.2032 14.8779 10.6333 16.5285 10.6333H71.4717C73.1223 10.6333 74.5175 11.2032 75.6572 12.3429C76.7969 13.4826 77.3668 14.8778 77.3668 16.5284V58.2716C77.3668 59.9222 76.7969 61.3173 75.6572 62.4571C74.5175 63.5968 73.1223 64.1666 71.4717 64.1666H22.1413ZM40.6808 50.6421C40.4938 51.5588 40.6536 52.4119 41.1603 53.2015C41.6669 53.9916 42.3785 54.4799 43.2952 54.6663C44.2118 54.8533 45.065 54.6935 45.8545 54.1869C46.6441 53.6809 47.1323 52.9696 47.3193 52.0529C47.5063 51.1362 47.3465 50.2828 46.8399 49.4926C46.3333 48.7031 45.6217 48.2148 44.705 48.0278C43.7883 47.8408 42.9352 48.0006 42.1457 48.5072C41.3561 49.0138 40.8678 49.7255 40.6808 50.6421ZM43.9818 44.8461C44.6521 44.8461 45.2199 44.6178 45.6849 44.1613C46.1506 43.7042 46.3834 43.138 46.3834 42.4627V22.8882C46.3834 22.2129 46.1567 21.647 45.7033 21.1905C45.2498 20.7334 44.6882 20.5049 44.0184 20.5049C43.348 20.5049 42.7803 20.7334 42.3153 21.1905C41.8496 21.647 41.6168 22.2129 41.6168 22.8882V42.4627C41.6168 43.138 41.8435 43.7042 42.2969 44.1613C42.7504 44.6178 43.312 44.8461 43.9818 44.8461Z" fill="#2F39D3"/>
</g>
</svg>
