<svg width="164" height="169" viewBox="0 0 164 169" fill="none" xmlns="http://www.w3.org/2000/svg">
<path d="M108.616 129.975C99.463 121.088 102.914 100.406 107.005 88.2717C111.096 76.137 117.974 64.7686 119.368 52.0264C122.315 24.9672 96.3138 -0.0531924 69.3371 0.383233C42.3529 0.824025 10.616 13.6496 1.85801 46.6879C-5.11308 72.9852 12.5749 104.363 28.4429 126.382C42.3837 145.731 62.6768 160.846 85.7848 166.173C108.893 171.499 134.675 166.303 152.519 150.553C162.972 141.328 171.085 119.68 152.57 122.59C138.19 124.865 122.857 143.805 108.616 129.975Z" fill="url(#paint0_linear_6288_379)"/>
<defs>
<linearGradient id="paint0_linear_6288_379" x1="36.3769" y1="7.71399" x2="158.378" y2="150.28" gradientUnits="userSpaceOnUse">
<stop stop-color="#7A98FF"/>
<stop offset="1" stop-color="#7A98FF"/>
</linearGradient>
</defs>
</svg>
