<svg width="88" height="88" viewBox="0 0 88 88" fill="none" xmlns="http://www.w3.org/2000/svg">
<mask id="mask0_6020_30231" style="mask-type:alpha" maskUnits="userSpaceOnUse" x="0" y="0" width="88" height="88">
<rect width="88" height="88" fill="#D9D9D9"/>
</mask>
<g mask="url(#mask0_6020_30231)">
<path d="M39.2333 46.6583L36.1167 41.9833C35.8111 41.4944 35.3833 41.0972 34.8333 40.7917C34.2833 40.4861 33.7028 40.3333 33.0917 40.3333H11.3667C10.6944 40.3333 10.0833 40.1347 9.53333 39.7375C8.98333 39.3403 8.58611 38.8056 8.34166 38.1333C7.97499 36.9722 7.71527 35.8264 7.56249 34.6958C7.40972 33.5653 7.33333 32.3889 7.33333 31.1667C7.33333 25.4222 9.25833 20.625 13.1083 16.775C16.9583 12.925 21.7556 11 27.5 11C30.6778 11 33.7028 11.6722 36.575 13.0167C39.4472 14.3611 41.9222 16.2556 44 18.7C46.0778 16.2556 48.5528 14.3611 51.425 13.0167C54.2972 11.6722 57.3222 11 60.5 11C66.2444 11 71.0417 12.925 74.8917 16.775C78.7417 20.625 80.6667 25.4222 80.6667 31.1667C80.6667 32.3889 80.5903 33.5653 80.4375 34.6958C80.2847 35.8264 80.025 36.9722 79.6583 38.1333C79.475 38.8056 79.0931 39.3403 78.5125 39.7375C77.9319 40.1347 77.3055 40.3333 76.6333 40.3333H57.1083L50.7833 30.9833C50.4167 30.4333 49.9431 30.0208 49.3625 29.7458C48.7819 29.4708 48.1556 29.3333 47.4833 29.3333C46.6889 29.3333 46.0014 29.5625 45.4208 30.0208C44.8403 30.4792 44.4278 31.075 44.1833 31.8083L39.2333 46.6583ZM44 75.8083C43.1444 75.8083 42.2889 75.6556 41.4333 75.35C40.5778 75.0444 39.8139 74.5556 39.1417 73.8833C33.3972 68.75 28.5389 64.2431 24.5667 60.3625C20.5944 56.4819 17.3861 52.9833 14.9417 49.8667C14.575 49.3778 14.5292 48.8889 14.8042 48.4C15.0792 47.9111 15.4917 47.6667 16.0417 47.6667H30.8917L37.2167 57.0167C37.5833 57.5667 38.0569 57.9792 38.6375 58.2542C39.2181 58.5292 39.8444 58.6667 40.5167 58.6667C41.3111 58.6667 41.9986 58.4375 42.5792 57.9792C43.1597 57.5208 43.5722 56.925 43.8167 56.1917L48.7667 41.25L51.975 46.0167C52.2806 46.5056 52.7083 46.9028 53.2583 47.2083C53.8083 47.5139 54.3889 47.6667 55 47.6667H71.9583C72.5083 47.6667 72.9208 47.9111 73.1958 48.4C73.4708 48.8889 73.425 49.3778 73.0583 49.8667C70.6139 52.9833 67.4056 56.4819 63.4333 60.3625C59.4611 64.2431 54.6028 68.75 48.8583 73.8833C48.1861 74.5556 47.4222 75.0444 46.5667 75.35C45.7111 75.6556 44.8556 75.8083 44 75.8083Z" fill="#2F39D3"/>
</g>
</svg>
