<svg width="407" height="410" viewBox="0 0 407 410" fill="none" xmlns="http://www.w3.org/2000/svg">
<g opacity="0.7">
<path d="M203.08 409.799C91.0993 409.799 0 317.884 0 204.9C0 91.9156 91.0993 0 203.08 0C315.061 0 406.16 91.9156 406.16 204.9C406.139 317.884 315.039 409.799 203.08 409.799ZM203.08 6.88611C94.8647 6.88611 6.82496 95.7148 6.82496 204.9C6.82496 314.084 94.8647 402.913 203.08 402.913C311.295 402.913 399.335 314.084 399.335 204.9C399.335 95.7148 311.295 6.88611 203.08 6.88611Z" fill="#F0F0F0"/>
<path d="M203.08 387.414C103.337 387.414 22.1868 305.536 22.1868 204.9C22.1868 104.263 103.337 22.3854 203.08 22.3854C302.823 22.3854 383.974 104.263 383.974 204.9C383.952 305.536 302.802 387.414 203.08 387.414ZM203.08 29.2715C107.103 29.2715 29.0117 108.062 29.0117 204.9C29.0117 301.737 107.103 380.528 203.08 380.528C299.058 380.528 377.149 301.737 377.149 204.9C377.149 108.062 299.058 29.2715 203.08 29.2715Z" fill="#F0F0F0"/>
<path d="M203.08 365.029C115.575 365.029 44.3728 293.189 44.3728 204.9C44.3728 116.611 115.575 44.7705 203.08 44.7705C290.585 44.7705 361.787 116.611 361.787 204.9C361.766 293.189 290.585 365.029 203.08 365.029ZM203.08 51.6566C119.319 51.6566 51.1977 120.41 51.1977 204.9C51.1977 289.411 119.34 358.143 203.08 358.143C286.819 358.143 354.962 289.389 354.962 204.9C354.962 120.41 286.819 51.6566 203.08 51.6566Z" fill="#F0F0F0"/>
<path d="M203.08 342.643C127.813 342.643 66.5591 280.863 66.5591 204.9C66.5591 128.958 127.791 67.1558 203.08 67.1558C278.347 67.1558 339.6 128.936 339.6 204.9C339.579 280.863 278.347 342.643 203.08 342.643ZM203.08 74.0419C131.557 74.0419 73.384 132.757 73.384 204.9C73.384 277.063 131.578 335.757 203.08 335.757C274.581 335.757 332.775 277.042 332.775 204.9C332.775 132.757 274.581 74.0419 203.08 74.0419Z" fill="#F0F0F0"/>
<path d="M203.08 320.258C140.029 320.258 88.7458 268.515 88.7458 204.9C88.7458 141.284 140.029 89.541 203.08 89.541C266.131 89.541 317.414 141.284 317.414 204.9C317.393 268.515 266.109 320.258 203.08 320.258ZM203.08 96.4271C143.795 96.4271 95.5708 145.083 95.5708 204.9C95.5708 264.716 143.795 313.394 203.08 313.394C262.365 313.394 310.589 264.738 310.589 204.9C310.589 145.083 262.365 96.4271 203.08 96.4271Z" fill="#F0F0F0"/>
<path d="M203.08 297.873C152.267 297.873 110.932 256.168 110.932 204.9C110.932 153.632 152.267 111.926 203.08 111.926C253.893 111.926 295.228 153.632 295.228 204.9C295.228 256.168 253.871 297.873 203.08 297.873ZM203.08 118.812C156.033 118.812 117.736 157.431 117.736 204.921C117.736 252.39 156.011 291.03 203.08 291.03C250.149 291.03 288.424 252.412 288.424 204.921C288.403 157.431 250.127 118.812 203.08 118.812Z" fill="#F0F0F0"/>
</g>
</svg>
