<svg width="89" height="286" viewBox="0 0 89 286" fill="none" xmlns="http://www.w3.org/2000/svg">
<path d="M-23.4656 136.523C-34.9998 114.823 -37.0298 90.1195 -30.4889 64.2508C-27.7322 53.3299 -23.8147 42.5202 -24.2991 31.0852C-24.78 19.6422 -30.897 7.0518 -42.4214 2.13336C-56.5701 -3.8969 -72.2667 4.00082 -81.3006 14.5798C-100.295 36.8281 -112.14 67.1206 -99.0173 96.9357C-88.8021 120.155 -66.3951 138.987 -58.7281 162.788C-51.3006 185.832 -58.7801 210.518 -48.1981 232.785C-42.625 244.515 -32.4982 254.345 -21.4554 262.529C-5.81123 274.11 12.7255 283.122 31.9687 284.885C51.221 286.652 71.0655 280.172 80.6994 265.951C105.953 228.673 62.4057 186.249 32.985 168.305C13.0858 156.162 -14.7602 152.886 -23.4656 136.523Z" fill="url(#paint0_linear_6288_381)"/>
<defs>
<linearGradient id="paint0_linear_6288_381" x1="-168" y1="203.314" x2="165.405" y2="175.06" gradientUnits="userSpaceOnUse">
<stop stop-color="#2F39D3" stop-opacity="0.5"/>
<stop offset="1" stop-color="#7A98FF"/>
</linearGradient>
</defs>
</svg>
