<svg width="139" height="216" viewBox="0 0 139 216" fill="none" xmlns="http://www.w3.org/2000/svg">
<g opacity="0.7">
<g opacity="0.7">
<path opacity="0.7" d="M2.73966 13.9658C3.74873 14.2353 4.79356 13.6045 5.07337 12.5569C5.35318 11.5093 4.762 10.4416 3.75293 10.1721C2.74386 9.90266 1.69903 10.5335 1.41922 11.5811C1.13941 12.6287 1.73059 13.6964 2.73966 13.9658Z" fill="#C9C2C2"/>
<path opacity="0.7" d="M19.1744 18.4088C20.1834 18.6783 21.2283 18.0475 21.5081 16.9999C21.7879 15.9523 21.1967 14.8846 20.1876 14.6151C19.1786 14.3456 18.1337 14.9765 17.8539 16.0241C17.5741 17.0717 18.1653 18.1394 19.1744 18.4088Z" fill="#C9C2C2"/>
<path opacity="0.7" d="M35.6221 22.8556C36.6312 23.1251 37.676 22.4943 37.9558 21.4467C38.2356 20.3991 37.6444 19.3314 36.6354 19.0619C35.6263 18.7924 34.5815 19.4232 34.3017 20.4708C34.0219 21.5184 34.613 22.5861 35.6221 22.8556Z" fill="#C9C2C2"/>
<path opacity="0.7" d="M54.3914 25.8899C54.1127 26.9332 53.0626 27.5672 52.0577 27.2988C51.0528 27.0305 50.4549 25.9709 50.7372 24.9141C51.0159 23.8708 52.066 23.2368 53.0709 23.5051C54.0758 23.7735 54.6736 24.8331 54.3914 25.8899Z" fill="#C9C2C2"/>
<path opacity="0.7" d="M68.492 31.742C69.5011 32.0114 70.5459 31.3806 70.8257 30.333C71.1055 29.2854 70.5143 28.2177 69.5053 27.9483C68.4962 27.6788 67.4513 28.3096 67.1715 29.3572C66.8917 30.4048 67.4829 31.4725 68.492 31.742Z" fill="#C9C2C2"/>
<path opacity="0.7" d="M87.2604 34.7762C86.9817 35.8194 85.9316 36.4534 84.9267 36.1851C83.9218 35.9167 83.324 34.8571 83.6062 33.8003C83.8849 32.757 84.935 32.123 85.9399 32.3914C86.9579 32.6632 87.5426 33.7193 87.2604 34.7762Z" fill="#C9C2C2"/>
<path opacity="0.7" d="M101.375 40.6319C102.384 40.9013 103.429 40.2705 103.709 39.2229C103.988 38.1753 103.397 37.1076 102.388 36.8381C101.379 36.5687 100.334 37.1995 100.054 38.2471C99.7747 39.2947 100.366 40.3624 101.375 40.6319Z" fill="#C9C2C2"/>
<path opacity="0.7" d="M120.144 43.6662C119.865 44.7094 118.815 45.3435 117.81 45.0751C116.805 44.8067 116.207 43.7471 116.49 42.6903C116.768 41.6471 117.818 41.013 118.823 41.2814C119.841 41.5532 120.426 42.6094 120.144 43.6662Z" fill="#C9C2C2"/>
<path opacity="0.7" d="M134.258 49.5219C135.267 49.7913 136.312 49.1606 136.592 48.113C136.871 47.0654 136.28 45.9976 135.271 45.7282C134.262 45.4587 133.217 46.0895 132.938 47.1371C132.658 48.1847 133.249 49.2524 134.258 49.5219Z" fill="#C9C2C2"/>
</g>
<g opacity="0.7">
<path opacity="0.7" d="M-1.26078 29.028C-0.25171 29.2974 0.793121 28.6667 1.07293 27.6191C1.35273 26.5715 0.76156 25.5037 -0.24751 25.2343C-1.25658 24.9648 -2.30142 25.5956 -2.58122 26.6432C-2.86103 27.6908 -2.26985 28.7585 -1.26078 29.028Z" fill="#C9C2C2"/>
<path opacity="0.7" d="M15.1739 33.471C16.183 33.7404 17.2278 33.1097 17.5076 32.0621C17.7874 31.0145 17.1963 29.9467 16.1872 29.6773C15.1781 29.4078 14.1333 30.0386 13.8535 31.0862C13.5737 32.1338 14.1648 33.2015 15.1739 33.471Z" fill="#C9C2C2"/>
<path opacity="0.7" d="M31.6218 37.9177C32.6309 38.1872 33.6757 37.5564 33.9555 36.5088C34.2353 35.4612 33.6441 34.3935 32.6351 34.124C31.626 33.8546 30.5812 34.4854 30.3013 35.533C30.0215 36.5806 30.6127 37.6483 31.6218 37.9177Z" fill="#C9C2C2"/>
<path opacity="0.7" d="M50.391 40.9521C50.1124 41.9953 49.0622 42.6293 48.0573 42.361C47.0524 42.0926 46.4546 41.033 46.7369 39.9762C47.0155 38.9329 48.0657 38.2989 49.0706 38.5673C50.0719 38.8492 50.6697 39.9088 50.391 40.9521Z" fill="#C9C2C2"/>
<path opacity="0.7" d="M64.4917 46.8041C65.5007 47.0736 66.5456 46.4428 66.8254 45.3952C67.1052 44.3476 66.514 43.2799 65.5049 43.0104C64.4959 42.7409 63.451 43.3717 63.1712 44.4193C62.8914 45.4669 63.4826 46.5346 64.4917 46.8041Z" fill="#C9C2C2"/>
<path opacity="0.7" d="M83.2601 49.8383C82.9814 50.8816 81.9312 51.5156 80.9264 51.2472C79.9215 50.9788 79.3236 49.9193 79.6059 48.8624C79.8846 47.8192 80.9347 47.1851 81.9396 47.4535C82.954 47.7389 83.5387 48.795 83.2601 49.8383Z" fill="#C9C2C2"/>
<path opacity="0.7" d="M97.3746 55.6941C98.3837 55.9636 99.4285 55.3328 99.7083 54.2852C99.9881 53.2376 99.3969 52.1699 98.3879 51.9004C97.3788 51.6309 96.334 52.2617 96.0542 53.3093C95.7743 54.3569 96.3655 55.4246 97.3746 55.6941Z" fill="#C9C2C2"/>
<path opacity="0.7" d="M116.143 58.7283C115.865 59.7716 114.815 60.4056 113.81 60.1372C112.805 59.8689 112.207 58.8093 112.489 57.7525C112.768 56.7092 113.818 56.0752 114.823 56.3435C115.837 56.6289 116.422 57.685 116.143 58.7283Z" fill="#C9C2C2"/>
<path opacity="0.7" d="M130.258 64.584C131.267 64.8535 132.312 64.2227 132.591 63.1751C132.871 62.1275 132.28 61.0598 131.271 60.7903C130.262 60.5208 129.217 61.1516 128.937 62.1992C128.657 63.2468 129.249 64.3145 130.258 64.584Z" fill="#C9C2C2"/>
</g>
<g opacity="0.7">
<path opacity="0.7" d="M13.5042 47.1379C13.2256 48.1811 12.1884 48.8186 11.1705 48.5468C10.1656 48.2784 9.5714 47.2053 9.85005 46.162C10.1287 45.1187 11.1789 44.4847 12.1838 44.7531C13.185 45.035 13.7828 46.0946 13.5042 47.1379Z" fill="#C9C2C2"/>
<path opacity="0.7" d="M29.9388 51.581C29.6601 52.6242 28.61 53.2582 27.6051 52.9899C26.6002 52.7215 26.006 51.6484 26.2846 50.6051C26.5633 49.5618 27.6004 48.9243 28.6183 49.1962C29.6327 49.4816 30.2174 50.5377 29.9388 51.581Z" fill="#C9C2C2"/>
<path opacity="0.7" d="M46.3875 56.0279C46.1089 57.0711 45.0587 57.7051 44.0538 57.4368C43.0489 57.1684 42.4547 56.0953 42.7334 55.052C43.012 54.0087 44.0622 53.3747 45.0671 53.6431C46.0683 53.925 46.6662 54.9846 46.3875 56.0279Z" fill="#C9C2C2"/>
<path opacity="0.7" d="M62.8218 60.471C62.5432 61.5143 61.493 62.1483 60.4881 61.8799C59.4832 61.6115 58.889 60.5384 59.1677 59.4951C59.4463 58.4519 60.4834 57.8143 61.5014 58.0862C62.5027 58.3681 63.1005 59.4277 62.8218 60.471Z" fill="#C9C2C2"/>
<path opacity="0.7" d="M79.2565 64.914C78.9779 65.9572 77.9277 66.5913 76.9228 66.3229C75.9179 66.0545 75.3237 64.9814 75.6024 63.9381C75.881 62.8949 76.9312 62.2608 77.9361 62.5292C78.9504 62.8146 79.5352 63.8707 79.2565 64.914Z" fill="#C9C2C2"/>
<path opacity="0.7" d="M95.7048 69.3609C95.4261 70.4041 94.3759 71.0382 93.371 70.7698C92.3662 70.5014 91.772 69.4283 92.0506 68.385C92.3293 67.3418 93.3664 66.7042 94.3843 66.9761C95.3856 67.258 95.9834 68.3176 95.7048 69.3609Z" fill="#C9C2C2"/>
<path opacity="0.7" d="M112.14 73.8041C111.861 74.8474 110.811 75.4814 109.806 75.213C108.801 74.9447 108.207 73.8715 108.486 72.8283C108.764 71.785 109.815 71.151 110.82 71.4193C111.834 71.7047 112.419 72.7608 112.14 73.8041Z" fill="#C9C2C2"/>
<path opacity="0.7" d="M128.588 78.2508C128.309 79.294 127.272 79.9315 126.254 79.6597C125.236 79.3878 124.655 78.3182 124.934 77.2749C125.212 76.2316 126.249 75.5941 127.267 75.866C128.285 76.1378 128.866 77.2075 128.588 78.2508Z" fill="#C9C2C2"/>
</g>
<g opacity="0.7">
<path opacity="0.7" d="M9.50054 62.2135C9.22189 63.2568 8.18478 63.8943 7.16683 63.6225C6.16194 63.3541 5.56412 62.2945 5.84639 61.2377C6.12504 60.1944 7.17521 59.5604 8.1801 59.8287C9.185 60.0971 9.77919 61.1703 9.50054 62.2135Z" fill="#C9C2C2"/>
<path opacity="0.7" d="M25.9352 66.6567C25.6566 67.6999 24.6064 68.3339 23.6015 68.0656C22.5966 67.7972 21.9988 66.7376 22.2811 65.6808C22.5597 64.6375 23.5968 64 24.6148 64.2719C25.6327 64.5437 26.2139 65.6134 25.9352 66.6567Z" fill="#C9C2C2"/>
<path opacity="0.7" d="M42.3838 71.1034C42.1052 72.1467 41.055 72.7807 40.0501 72.5123C39.0452 72.244 38.4474 71.1844 38.7297 70.1276C39.0083 69.0843 40.0585 68.4503 41.0634 68.7186C42.0683 68.987 42.6625 70.0602 42.3838 71.1034Z" fill="#C9C2C2"/>
<path opacity="0.7" d="M58.8182 75.5467C58.5395 76.5899 57.4894 77.2239 56.4845 76.9556C55.4796 76.6872 54.8818 75.6276 55.164 74.5708C55.4427 73.5275 56.4798 72.89 57.4977 73.1619C58.5026 73.4302 59.0968 74.5034 58.8182 75.5467Z" fill="#C9C2C2"/>
<path opacity="0.7" d="M75.2529 79.9897C74.9742 81.0329 73.924 81.6669 72.9192 81.3986C71.9143 81.1302 71.3164 80.0706 71.5987 79.0138C71.8774 77.9705 72.9275 77.3365 73.9324 77.6049C74.9504 77.8767 75.5315 78.9464 75.2529 79.9897Z" fill="#C9C2C2"/>
<path opacity="0.7" d="M91.7011 84.4364C91.4225 85.4797 90.3723 86.1137 89.3674 85.8454C88.3625 85.577 87.7647 84.5174 88.047 83.4606C88.3256 82.4173 89.3627 81.7798 90.3807 82.0516C91.3856 82.32 91.9797 83.3932 91.7011 84.4364Z" fill="#C9C2C2"/>
<path opacity="0.7" d="M108.136 88.8798C107.858 89.9231 106.807 90.5571 105.803 90.2887C104.798 90.0204 104.2 88.9608 104.482 87.9039C104.761 86.8607 105.811 86.2266 106.816 86.495C107.834 86.7669 108.415 87.8365 108.136 88.8798Z" fill="#C9C2C2"/>
<path opacity="0.7" d="M124.584 93.3265C124.306 94.3697 123.268 95.0072 122.25 94.7354C121.233 94.4635 120.648 93.4074 120.93 92.3506C121.209 91.3073 122.246 90.6698 123.264 90.9417C124.282 91.2135 124.863 92.2832 124.584 93.3265Z" fill="#C9C2C2"/>
</g>
<g opacity="0.7">
<path opacity="0.7" d="M3.16318 78.698C4.17225 78.9675 5.21708 78.3367 5.49688 77.2891C5.77669 76.2415 5.18551 75.1738 4.17644 74.9043C3.16737 74.6348 2.12254 75.2656 1.84273 76.3132C1.56293 77.3608 2.15411 78.4285 3.16318 78.698Z" fill="#C9C2C2"/>
<path opacity="0.7" d="M19.6111 83.1448C20.6201 83.4142 21.665 82.7835 21.9448 81.7359C22.2246 80.6883 21.6334 79.6206 20.6243 79.3511C19.6152 79.0816 18.5704 79.7124 18.2906 80.76C18.0108 81.8076 18.602 82.8753 19.6111 83.1448Z" fill="#C9C2C2"/>
<path opacity="0.7" d="M38.3803 86.1791C38.1017 87.2224 37.0515 87.8564 36.0466 87.588C35.0417 87.3196 34.4439 86.2601 34.7262 85.2032C35.0084 84.1464 36.055 83.526 37.0599 83.7943C38.0648 84.0627 38.659 85.1358 38.3803 86.1791Z" fill="#C9C2C2"/>
<path opacity="0.7" d="M52.4808 92.0311C53.4899 92.3006 54.5347 91.6698 54.8145 90.6222C55.0943 89.5746 54.5031 88.5069 53.4941 88.2374C52.485 87.968 51.4402 88.5988 51.1604 89.6464C50.8806 90.694 51.4717 91.7616 52.4808 92.0311Z" fill="#C9C2C2"/>
<path opacity="0.7" d="M71.2492 95.0654C70.9706 96.1087 69.9204 96.7427 68.9155 96.4744C67.9106 96.206 67.3128 95.1464 67.5951 94.0896C67.8773 93.0328 68.9239 92.4123 69.9288 92.6807C70.9467 92.9525 71.5279 94.0222 71.2492 95.0654Z" fill="#C9C2C2"/>
<path opacity="0.7" d="M85.3637 100.921C86.3728 101.191 87.4176 100.56 87.6975 99.5122C87.9773 98.4646 87.3861 97.3969 86.377 97.1275C85.3679 96.858 84.3231 97.4888 84.0433 98.5364C83.7635 99.584 84.3547 100.652 85.3637 100.921Z" fill="#C9C2C2"/>
<path opacity="0.7" d="M104.133 103.955C103.854 104.999 102.804 105.633 101.799 105.364C100.794 105.096 100.196 104.036 100.478 102.979C100.761 101.923 101.807 101.302 102.812 101.571C103.83 101.842 104.411 102.912 104.133 103.955Z" fill="#C9C2C2"/>
<path opacity="0.7" d="M118.247 109.811C119.256 110.081 120.301 109.45 120.58 108.402C120.86 107.355 120.269 106.287 119.26 106.017C118.251 105.748 117.206 106.379 116.926 107.426C116.647 108.474 117.238 109.542 118.247 109.811Z" fill="#C9C2C2"/>
</g>
<g opacity="0.7">
<path opacity="0.7" d="M-0.840498 93.7737C0.168572 94.0432 1.2134 93.4124 1.49321 92.3648C1.77302 91.3172 1.18185 90.2495 0.172777 89.98C-0.836293 89.7105 -1.88113 90.3413 -2.16094 91.3889C-2.44075 92.4365 -1.84957 93.5042 -0.840498 93.7737Z" fill="#C9C2C2"/>
<path opacity="0.7" d="M15.6074 98.2205C16.6164 98.49 17.6613 97.8592 17.9411 96.8116C18.2209 95.764 17.6297 94.6962 16.6207 94.4268C15.6116 94.1573 14.5667 94.7881 14.2869 95.8357C14.0071 96.8833 14.5983 97.951 15.6074 98.2205Z" fill="#C9C2C2"/>
<path opacity="0.7" d="M34.3766 101.255C34.098 102.298 33.0478 102.932 32.0429 102.664C31.038 102.395 30.4438 101.322 30.7225 100.279C31.0011 99.2357 32.0513 98.6016 33.0562 98.87C34.0611 99.1384 34.6589 100.198 34.3766 101.255Z" fill="#C9C2C2"/>
<path opacity="0.7" d="M48.4771 107.107C49.4862 107.376 50.531 106.746 50.8108 105.698C51.0906 104.65 50.4995 103.583 49.4904 103.313C48.4813 103.044 47.4365 103.674 47.1567 104.722C46.8769 105.77 47.4681 106.837 48.4771 107.107Z" fill="#C9C2C2"/>
<path opacity="0.7" d="M67.2455 110.141C66.9669 111.184 65.9167 111.818 64.9118 111.55C63.9069 111.282 63.3127 110.208 63.5914 109.165C63.87 108.122 64.9202 107.488 65.9251 107.756C66.943 108.028 67.5278 109.084 67.2455 110.141Z" fill="#C9C2C2"/>
<path opacity="0.7" d="M81.3602 115.997C82.3693 116.266 83.4141 115.636 83.6939 114.588C83.9737 113.54 83.3825 112.473 82.3735 112.203C81.3644 111.934 80.3196 112.564 80.0397 113.612C79.7599 114.66 80.3511 115.727 81.3602 115.997Z" fill="#C9C2C2"/>
<path opacity="0.7" d="M100.129 119.031C99.8503 120.074 98.8001 120.708 97.7952 120.44C96.7903 120.172 96.1961 119.098 96.4748 118.055C96.7534 117.012 97.8036 116.378 98.8085 116.646C99.8265 116.918 100.411 117.974 100.129 119.031Z" fill="#C9C2C2"/>
<path opacity="0.7" d="M114.243 124.887C115.252 125.156 116.297 124.525 116.577 123.478C116.857 122.43 116.265 121.363 115.256 121.093C114.247 120.824 113.202 121.454 112.923 122.502C112.643 123.55 113.234 124.617 114.243 124.887Z" fill="#C9C2C2"/>
</g>
<g opacity="0.7">
<path opacity="0.7" d="M11.6075 113.283C12.6166 113.552 13.6614 112.921 13.9412 111.874C14.221 110.826 13.6298 109.759 12.6208 109.489C11.6117 109.22 10.5669 109.85 10.2871 110.898C10.0073 111.946 10.5984 113.013 11.6075 113.283Z" fill="#C9C2C2"/>
<path opacity="0.7" d="M30.3768 116.317C30.0981 117.36 29.0479 117.994 28.043 117.726C27.0382 117.458 26.4404 116.398 26.7226 115.341C27.0049 114.284 28.0514 113.664 29.0563 113.932C30.0576 114.214 30.6554 115.274 30.3768 116.317Z" fill="#C9C2C2"/>
<path opacity="0.7" d="M44.4773 122.169C45.4863 122.439 46.5312 121.808 46.811 120.76C47.0908 119.713 46.4996 118.645 45.4905 118.375C44.4815 118.106 43.4366 118.737 43.1568 119.784C42.877 120.832 43.4682 121.9 44.4773 122.169Z" fill="#C9C2C2"/>
<path opacity="0.7" d="M63.2457 125.203C62.967 126.247 61.9168 126.881 60.9119 126.612C59.907 126.344 59.3092 125.284 59.5915 124.227C59.8738 123.171 60.9203 122.55 61.9252 122.818C62.9395 123.104 63.5243 124.16 63.2457 125.203Z" fill="#C9C2C2"/>
<path opacity="0.7" d="M77.3603 131.059C78.3694 131.329 79.4142 130.698 79.694 129.65C79.9738 128.603 79.3827 127.535 78.3736 127.265C77.3645 126.996 76.3197 127.627 76.0399 128.674C75.7601 129.722 76.3512 130.79 77.3603 131.059Z" fill="#C9C2C2"/>
<path opacity="0.7" d="M96.1291 134.093C95.8504 135.137 94.8003 135.771 93.7954 135.502C92.7905 135.234 92.1927 134.174 92.4749 133.117C92.7572 132.061 93.8038 131.44 94.8086 131.709C95.823 131.994 96.4077 133.05 96.1291 134.093Z" fill="#C9C2C2"/>
<path opacity="0.7" d="M110.243 139.949C111.252 140.218 112.297 139.588 112.577 138.54C112.857 137.492 112.266 136.425 111.257 136.155C110.247 135.886 109.203 136.517 108.923 137.564C108.643 138.612 109.234 139.68 110.243 139.949Z" fill="#C9C2C2"/>
</g>
<g opacity="0.7">
<path opacity="0.7" d="M9.92449 126.946C9.64585 127.989 8.59568 128.623 7.59079 128.355C6.58589 128.086 5.98808 127.027 6.27034 125.97C6.54899 124.927 7.58611 124.289 8.60405 124.561C9.61838 124.846 10.2031 125.903 9.92449 126.946Z" fill="#C9C2C2"/>
<path opacity="0.7" d="M26.3731 131.393C26.0945 132.436 25.0443 133.07 24.0394 132.802C23.0345 132.533 22.4367 131.474 22.719 130.417C22.9976 129.374 24.0478 128.74 25.0527 129.008C26.0539 129.29 26.6518 130.349 26.3731 131.393Z" fill="#C9C2C2"/>
<path opacity="0.7" d="M42.8074 135.836C42.5288 136.879 41.4786 137.513 40.4737 137.245C39.4688 136.976 38.871 135.917 39.1533 134.86C39.4319 133.817 40.469 133.179 41.487 133.451C42.4883 133.733 43.0861 134.793 42.8074 135.836Z" fill="#C9C2C2"/>
<path opacity="0.7" d="M59.2421 140.279C58.9635 141.322 57.9133 141.956 56.9084 141.688C55.9035 141.42 55.3057 140.36 55.588 139.303C55.8666 138.26 56.9168 137.626 57.9217 137.894C58.936 138.18 59.5208 139.236 59.2421 140.279Z" fill="#C9C2C2"/>
<path opacity="0.7" d="M75.6904 144.726C75.4117 145.769 74.3615 146.403 73.3567 146.135C72.3518 145.866 71.7539 144.807 72.0362 143.75C72.3149 142.707 73.352 142.069 74.3699 142.341C75.3712 142.623 75.969 143.683 75.6904 144.726Z" fill="#C9C2C2"/>
<path opacity="0.7" d="M92.1256 149.169C91.8469 150.212 90.7967 150.846 89.7918 150.578C88.787 150.31 88.1891 149.25 88.4714 148.193C88.7501 147.15 89.8002 146.516 90.8051 146.784C91.8194 147.07 92.4042 148.126 92.1256 149.169Z" fill="#C9C2C2"/>
<path opacity="0.7" d="M108.573 153.616C108.295 154.659 107.258 155.296 106.24 155.025C105.222 154.753 104.637 153.697 104.919 152.64C105.198 151.596 106.235 150.959 107.253 151.231C108.271 151.503 108.852 152.572 108.573 153.616Z" fill="#C9C2C2"/>
</g>
<g opacity="0.7">
<path opacity="0.7" d="M5.9207 142.022C5.64205 143.065 4.59189 143.699 3.58699 143.431C2.5821 143.162 1.98428 142.103 2.26655 141.046C2.5452 140.003 3.58232 139.365 4.60027 139.637C5.61822 139.909 6.19935 140.978 5.9207 142.022Z" fill="#C9C2C2"/>
<path opacity="0.7" d="M22.3694 146.468C22.0908 147.512 21.0406 148.146 20.0357 147.877C19.0308 147.609 18.433 146.549 18.7153 145.493C18.9939 144.449 20.0441 143.815 21.049 144.084C22.0539 144.352 22.6481 145.425 22.3694 146.468Z" fill="#C9C2C2"/>
<path opacity="0.7" d="M38.8038 150.912C38.5251 151.955 37.4749 152.589 36.47 152.321C35.4652 152.052 34.8673 150.993 35.1496 149.936C35.4283 148.893 36.4654 148.255 37.4833 148.527C38.4882 148.795 39.0824 149.868 38.8038 150.912Z" fill="#C9C2C2"/>
<path opacity="0.7" d="M55.2384 155.355C54.9598 156.398 53.9096 157.032 52.9047 156.764C51.8998 156.495 51.302 155.436 51.5843 154.379C51.8629 153.336 52.9131 152.702 53.918 152.97C54.936 153.242 55.5171 154.311 55.2384 155.355Z" fill="#C9C2C2"/>
<path opacity="0.7" d="M71.6867 159.801C71.408 160.845 70.3579 161.479 69.353 161.21C68.3481 160.942 67.7503 159.882 68.0325 158.826C68.3112 157.782 69.3483 157.145 70.3663 157.417C71.3712 157.685 71.9653 158.758 71.6867 159.801Z" fill="#C9C2C2"/>
<path opacity="0.7" d="M88.1217 164.245C87.8431 165.288 86.7929 165.922 85.788 165.654C84.7831 165.385 84.1853 164.326 84.4676 163.269C84.7462 162.226 85.7964 161.592 86.8013 161.86C87.8193 162.132 88.4004 163.202 88.1217 164.245Z" fill="#C9C2C2"/>
<path opacity="0.7" d="M104.57 168.691C104.291 169.735 103.254 170.372 102.236 170.1C101.218 169.829 100.633 168.772 100.915 167.716C101.194 166.672 102.231 166.035 103.249 166.307C104.267 166.579 104.848 167.648 104.57 168.691Z" fill="#C9C2C2"/>
</g>
<g opacity="0.7">
<path opacity="0.7" d="M-0.403351 158.51C0.605719 158.779 1.65055 158.148 1.93036 157.101C2.21016 156.053 1.61898 154.986 0.609913 154.716C-0.399157 154.447 -1.44399 155.077 -1.72379 156.125C-2.0036 157.173 -1.41242 158.24 -0.403351 158.51Z" fill="#C9C2C2"/>
<path opacity="0.7" d="M18.3659 161.544C18.0873 162.587 17.0371 163.221 16.0322 162.953C15.0273 162.685 14.4295 161.625 14.7118 160.568C14.994 159.511 16.0406 158.891 17.0455 159.159C18.0504 159.428 18.6446 160.501 18.3659 161.544Z" fill="#C9C2C2"/>
<path opacity="0.7" d="M32.4664 167.396C33.4755 167.666 34.5203 167.035 34.8001 165.987C35.0799 164.94 34.4887 163.872 33.4797 163.602C32.4706 163.333 31.4258 163.964 31.146 165.011C30.8662 166.059 31.4573 167.127 32.4664 167.396Z" fill="#C9C2C2"/>
<path opacity="0.7" d="M51.2348 170.43C50.9561 171.474 49.906 172.108 48.9011 171.839C47.8962 171.571 47.2984 170.511 47.5806 169.454C47.8629 168.398 48.9095 167.777 49.9144 168.046C50.9323 168.317 51.5134 169.387 51.2348 170.43Z" fill="#C9C2C2"/>
<path opacity="0.7" d="M65.3495 176.286C66.3585 176.555 67.4034 175.925 67.6832 174.877C67.963 173.829 67.3718 172.762 66.3627 172.492C65.3536 172.223 64.3088 172.854 64.029 173.901C63.7492 174.949 64.3404 176.017 65.3495 176.286Z" fill="#C9C2C2"/>
<path opacity="0.7" d="M84.1182 179.32C83.8396 180.364 82.7894 180.998 81.7845 180.729C80.7796 180.461 80.1818 179.401 80.4641 178.344C80.7463 177.288 81.7929 176.667 82.7978 176.936C83.8157 177.207 84.3969 178.277 84.1182 179.32Z" fill="#C9C2C2"/>
<path opacity="0.7" d="M98.2324 185.176C99.2415 185.445 100.286 184.815 100.566 183.767C100.846 182.72 100.255 181.652 99.2456 181.382C98.2366 181.113 97.1917 181.744 96.9119 182.791C96.6321 183.839 97.2233 184.907 98.2324 185.176Z" fill="#C9C2C2"/>
</g>
<g opacity="0.7">
<path opacity="0.7" d="M14.3657 176.606C14.087 177.649 13.0368 178.283 12.032 178.015C11.0271 177.747 10.4329 176.674 10.7115 175.63C10.9902 174.587 12.0403 173.953 13.0452 174.221C14.0465 174.503 14.6443 175.563 14.3657 176.606Z" fill="#C9C2C2"/>
<path opacity="0.7" d="M30.7999 181.049C30.5212 182.093 29.4711 182.727 28.4662 182.458C27.4613 182.19 26.8671 181.117 27.1457 180.073C27.4244 179.03 28.4615 178.393 29.4794 178.665C30.4807 178.946 31.0785 180.006 30.7999 181.049Z" fill="#C9C2C2"/>
<path opacity="0.7" d="M47.2345 185.492C46.9559 186.536 45.9057 187.17 44.9008 186.901C43.8959 186.633 43.3018 185.56 43.5804 184.516C43.859 183.473 44.9092 182.839 45.9141 183.108C46.9284 183.393 47.5132 184.449 47.2345 185.492Z" fill="#C9C2C2"/>
<path opacity="0.7" d="M63.6829 189.939C63.4043 190.982 62.3541 191.617 61.3492 191.348C60.3443 191.08 59.7501 190.007 60.0288 188.963C60.3074 187.92 61.3445 187.283 62.3625 187.554C63.3638 187.836 63.9616 188.896 63.6829 189.939Z" fill="#C9C2C2"/>
<path opacity="0.7" d="M80.118 194.382C79.8393 195.426 78.7892 196.06 77.7843 195.791C76.7794 195.523 76.1852 194.45 76.4638 193.407C76.7425 192.363 77.7926 191.729 78.7975 191.998C79.8119 192.283 80.3966 193.339 80.118 194.382Z" fill="#C9C2C2"/>
<path opacity="0.7" d="M96.5659 198.829C96.2872 199.873 95.2501 200.51 94.2321 200.238C93.2142 199.966 92.6331 198.897 92.9117 197.853C93.1904 196.81 94.2275 196.173 95.2454 196.444C96.2634 196.716 96.8445 197.786 96.5659 198.829Z" fill="#C9C2C2"/>
</g>
<g opacity="0.7">
<path opacity="0.7" d="M10.362 191.682C10.0833 192.725 9.03317 193.359 8.02828 193.091C7.02338 192.822 6.42918 191.749 6.70783 190.706C6.98648 189.663 8.03666 189.029 9.04155 189.297C10.0428 189.579 10.6406 190.639 10.362 191.682Z" fill="#C9C2C2"/>
<path opacity="0.7" d="M24.4625 197.534C25.4716 197.803 26.5164 197.173 26.7962 196.125C27.076 195.077 26.4848 194.01 25.4758 193.74C24.4667 193.471 23.4218 194.102 23.142 195.149C22.8622 196.197 23.4534 197.264 24.4625 197.534Z" fill="#C9C2C2"/>
<path opacity="0.7" d="M43.2309 200.568C42.9522 201.611 41.9021 202.245 40.8972 201.977C39.8923 201.709 39.2981 200.635 39.5767 199.592C39.8554 198.549 40.9056 197.915 41.9105 198.183C42.9248 198.469 43.5095 199.525 43.2309 200.568Z" fill="#C9C2C2"/>
<path opacity="0.7" d="M57.3455 206.424C58.3546 206.693 59.3994 206.063 59.6792 205.015C59.959 203.967 59.3679 202.9 58.3588 202.63C57.3497 202.361 56.3049 202.991 56.0251 204.039C55.7453 205.087 56.3365 206.154 57.3455 206.424Z" fill="#C9C2C2"/>
<path opacity="0.7" d="M76.1143 209.458C75.8357 210.501 74.7855 211.135 73.7806 210.867C72.7757 210.599 72.1815 209.526 72.4602 208.482C72.7388 207.439 73.789 206.805 74.7939 207.073C75.8082 207.359 76.393 208.415 76.1143 209.458Z" fill="#C9C2C2"/>
<path opacity="0.7" d="M90.2285 215.314C91.2375 215.583 92.2824 214.953 92.5622 213.905C92.842 212.857 92.2508 211.79 91.2417 211.52C90.2327 211.251 89.1878 211.882 88.908 212.929C88.6282 213.977 89.2194 215.044 90.2285 215.314Z" fill="#C9C2C2"/>
</g>
</g>
</svg>
