<svg width="88" height="88" viewBox="0 0 88 88" fill="none" xmlns="http://www.w3.org/2000/svg">
<mask id="mask0_7232_10129" style="mask-type:alpha" maskUnits="userSpaceOnUse" x="0" y="0" width="88" height="88">
<rect width="88" height="88" fill="#D9D9D9"/>
</mask>
<g mask="url(#mask0_7232_10129)">
<path d="M11 77C9.96109 77 9.09026 76.6486 8.38748 75.9458C7.6847 75.2431 7.33331 74.3722 7.33331 73.3333C7.33331 72.2944 7.6847 71.4236 8.38748 70.7208C9.09026 70.0181 9.96109 69.6667 11 69.6667H77C78.0389 69.6667 78.9097 70.0181 79.6125 70.7208C80.3153 71.4236 80.6666 72.2944 80.6666 73.3333C80.6666 74.3722 80.3153 75.2431 79.6125 75.9458C78.9097 76.6486 78.0389 77 77 77H11ZM16.5 66C14.9722 66 13.6736 65.4653 12.6041 64.3958C11.5347 63.3264 11 62.0278 11 60.5V45.8333C11 44.3056 11.5347 43.0069 12.6041 41.9375C13.6736 40.8681 14.9722 40.3333 16.5 40.3333C18.0278 40.3333 19.3264 40.8681 20.3958 41.9375C21.4653 43.0069 22 44.3056 22 45.8333V60.5C22 62.0278 21.4653 63.3264 20.3958 64.3958C19.3264 65.4653 18.0278 66 16.5 66ZM34.8333 66C33.3055 66 32.0069 65.4653 30.9375 64.3958C29.868 63.3264 29.3333 62.0278 29.3333 60.5V27.5C29.3333 25.9722 29.868 24.6736 30.9375 23.6042C32.0069 22.5347 33.3055 22 34.8333 22C36.3611 22 37.6597 22.5347 38.7291 23.6042C39.7986 24.6736 40.3333 25.9722 40.3333 27.5V60.5C40.3333 62.0278 39.7986 63.3264 38.7291 64.3958C37.6597 65.4653 36.3611 66 34.8333 66ZM53.1666 66C51.6389 66 50.3403 65.4653 49.2708 64.3958C48.2014 63.3264 47.6666 62.0278 47.6666 60.5V38.5C47.6666 36.9722 48.2014 35.6736 49.2708 34.6042C50.3403 33.5347 51.6389 33 53.1666 33C54.6944 33 55.993 33.5347 57.0625 34.6042C58.1319 35.6736 58.6666 36.9722 58.6666 38.5V60.5C58.6666 62.0278 58.1319 63.3264 57.0625 64.3958C55.993 65.4653 54.6944 66 53.1666 66ZM71.5 66C69.9722 66 68.6736 65.4653 67.6041 64.3958C66.5347 63.3264 66 62.0278 66 60.5V16.5C66 14.9722 66.5347 13.6736 67.6041 12.6042C68.6736 11.5347 69.9722 11 71.5 11C73.0278 11 74.3264 11.5347 75.3958 12.6042C76.4653 13.6736 77 14.9722 77 16.5V60.5C77 62.0278 76.4653 63.3264 75.3958 64.3958C74.3264 65.4653 73.0278 66 71.5 66Z" fill="#2F39D3"/>
</g>
</svg>
