<svg width="88" height="88" viewBox="0 0 88 88" fill="none" xmlns="http://www.w3.org/2000/svg">
<mask id="mask0_6020_30295" style="mask-type:alpha" maskUnits="userSpaceOnUse" x="0" y="0" width="88" height="88">
<rect width="88" height="88" fill="#D9D9D9"/>
</mask>
<g mask="url(#mask0_6020_30295)">
<path d="M44 77C36.3 77 29.4861 74.6625 23.5583 69.9875C17.6306 65.3125 13.7806 59.3389 12.0083 52.0667C11.7639 51.15 11.9472 50.3097 12.5583 49.5458C13.1694 48.7819 13.9944 48.3389 15.0333 48.2167C16.0111 48.0944 16.8972 48.2778 17.6917 48.7667C18.4861 49.2556 19.0361 49.9889 19.3417 50.9667C20.8083 56.4667 23.8333 60.9583 28.4167 64.4417C33 67.925 38.1944 69.6667 44 69.6667C51.15 69.6667 57.2153 67.1764 62.1958 62.1958C67.1764 57.2153 69.6667 51.15 69.6667 44C69.6667 36.85 67.1764 30.7847 62.1958 25.8042C57.2153 20.8236 51.15 18.3333 44 18.3333C39.7833 18.3333 35.8417 19.3111 32.175 21.2667C28.5083 23.2222 25.4222 25.9111 22.9167 29.3333H29.3333C30.3722 29.3333 31.2431 29.6847 31.9458 30.3875C32.6486 31.0903 33 31.9611 33 33C33 34.0389 32.6486 34.9097 31.9458 35.6125C31.2431 36.3153 30.3722 36.6667 29.3333 36.6667H14.6667C13.6278 36.6667 12.7569 36.3153 12.0542 35.6125C11.3514 34.9097 11 34.0389 11 33V18.3333C11 17.2944 11.3514 16.4236 12.0542 15.7208C12.7569 15.0181 13.6278 14.6667 14.6667 14.6667C15.7056 14.6667 16.5764 15.0181 17.2792 15.7208C17.9819 16.4236 18.3333 17.2944 18.3333 18.3333V23.2833C21.45 19.3722 25.2542 16.3472 29.7458 14.2083C34.2375 12.0694 38.9889 11 44 11C48.5833 11 52.8764 11.8708 56.8792 13.6125C60.8819 15.3542 64.3653 17.7069 67.3292 20.6708C70.2931 23.6347 72.6458 27.1181 74.3875 31.1208C76.1292 35.1236 77 39.4167 77 44C77 48.5833 76.1292 52.8764 74.3875 56.8792C72.6458 60.8819 70.2931 64.3653 67.3292 67.3292C64.3653 70.2931 60.8819 72.6458 56.8792 74.3875C52.8764 76.1292 48.5833 77 44 77ZM47.6667 42.5333L56.8333 51.7C57.5056 52.3722 57.8417 53.2278 57.8417 54.2667C57.8417 55.3056 57.5056 56.1611 56.8333 56.8333C56.1611 57.5056 55.3056 57.8417 54.2667 57.8417C53.2278 57.8417 52.3722 57.5056 51.7 56.8333L41.4333 46.5667C41.0667 46.2 40.7917 45.7875 40.6083 45.3292C40.425 44.8708 40.3333 44.3972 40.3333 43.9083V29.3333C40.3333 28.2944 40.6847 27.4236 41.3875 26.7208C42.0903 26.0181 42.9611 25.6667 44 25.6667C45.0389 25.6667 45.9097 26.0181 46.6125 26.7208C47.3153 27.4236 47.6667 28.2944 47.6667 29.3333V42.5333Z" fill="#2F39D3"/>
</g>
</svg>
