<?xml version="1.0" standalone="no"?>
<!DOCTYPE svg PUBLIC "-//W3C//DTD SVG 20010904//EN"
 "http://www.w3.org/TR/2001/REC-SVG-20010904/DTD/svg10.dtd">
<svg version="1.0" xmlns="http://www.w3.org/2000/svg"
 width="107.000000pt" height="107.000000pt" viewBox="0 0 107.000000 107.000000"
 preserveAspectRatio="xMidYMid meet">

<g transform="translate(0.000000,107.000000) scale(0.100000,-0.100000)"
fill="#2F39D3" stroke="none">
<path d="M675 926 c-47 -21 -100 -71 -135 -124 l-15 -23 -36 48 c-21 29 -57
60 -90 78 -47 26 -64 30 -131 30 -69 0 -81 -3 -119 -30 -26 -18 -53 -50 -68
-80 -22 -42 -26 -62 -26 -140 0 -78 4 -97 27 -140 14 -27 40 -63 57 -79 40
-38 39 -46 -5 -46 -26 0 -43 -8 -65 -29 -37 -37 -38 -79 -4 -119 31 -37 73
-48 118 -31 33 11 35 10 138 -66 57 -43 123 -87 147 -99 39 -19 45 -19 70 -5
35 19 50 61 33 91 -7 13 -71 66 -142 118 -162 119 -281 231 -308 290 -29 64
-29 171 1 230 32 62 77 90 145 90 94 0 162 -44 215 -137 16 -29 36 -53 43 -53
8 0 27 24 44 54 41 71 109 133 156 142 176 33 296 -143 216 -314 -24 -52 -25
-52 -70 -52 -42 0 -48 4 -69 36 -13 19 -28 34 -35 31 -7 -2 -18 -23 -26 -48
-8 -24 -16 -38 -19 -31 -2 7 -23 12 -53 12 -45 0 -49 2 -55 28 -12 53 -17 67
-27 74 -20 13 -36 -5 -43 -48 l-6 -44 -25 20 c-28 22 -53 17 -53 -11 0 -15 -9
-18 -57 -21 -50 -3 -58 -6 -58 -23 0 -18 8 -21 80 -25 73 -5 80 -7 83 -27 7
-50 58 -55 64 -6 3 27 6 28 58 31 52 2 56 1 72 -28 24 -42 50 -36 62 13 10 37
19 46 31 27 3 -5 36 -10 73 -10 64 0 68 1 89 33 37 55 55 109 57 172 1 84 -24
144 -84 198 -78 70 -166 85 -255 43z m-484 -572 c10 -13 10 -20 -3 -42 -19
-30 -47 -39 -77 -22 -23 12 -28 49 -9 68 17 17 73 15 89 -4z m137 -57 c37 -30
97 -75 135 -101 43 -31 67 -55 67 -67 0 -40 -29 -27 -186 89 -93 68 -100 76
-96 103 2 16 6 29 9 29 2 0 34 -24 71 -53z"/>
</g>
</svg>
