<svg width="204" height="79" viewBox="0 0 204 79" fill="none" xmlns="http://www.w3.org/2000/svg">
<path d="M18.0759 28.2623H24.051V26.1337C24.051 25.975 24.2409 25.8935 24.3559 26.0028L25.721 27.3C25.7453 27.3231 25.7627 27.3524 25.7712 27.3848L26.91 31.6994C26.9599 31.8883 27.2325 31.8745 27.263 31.6815L28.6187 23.0951C28.6502 22.8955 28.9357 22.8904 28.9743 23.0888L30.026 28.4941H35.1475L36.4501 31.1209C36.5618 31.3463 36.8936 31.3109 36.9553 31.0671L38.4991 24.9687C38.5188 24.8907 38.6231 24.8755 38.6642 24.9447L40.7741 28.4941H46.0585" stroke="url(#paint0_linear_6013_157)" stroke-width="2.70874" stroke-linecap="round"/>
<path d="M46.7574 27.5822C53.8829 16.7685 46.652 7.15784 38.4011 7.15784C31.225 7.15784 27.3563 15.1476 26.4702 17.2291C26.4026 17.388 26.1556 17.3841 26.0934 17.2231C25.3108 15.1992 21.8343 7.68497 13.3565 7.68497C3.55941 7.68497 1.69636 19.7963 5.34104 26.2845C8.98572 32.7727 24.4905 43.1539 26.7172 44.8841C28.9439 46.6143 27.6079 50.5072 24.0451 48.777C20.4824 47.0468 10.2395 38.8284 10.2395 38.8284" stroke="#2F39D3" stroke-width="2.70874" stroke-linecap="round"/>
<path d="M11.2864 37.1316C11.2864 38.9819 9.59271 40.6983 7.22329 40.6983C4.85388 40.6983 3.16019 38.9819 3.16019 37.1316C3.16019 35.2813 4.85388 33.5649 7.22329 33.5649C9.59271 33.5649 11.2864 35.2813 11.2864 37.1316Z" stroke="url(#paint1_linear_6013_157)" stroke-width="2.70874"/>
<path d="M59.6766 54.1319V64.2106H56.9544V54.7315C56.9544 53.9105 56.7545 53.1651 56.3548 52.4954C55.9551 51.8256 55.4204 51.2963 54.7507 50.9074C54.0809 50.5077 53.3355 50.3079 52.5146 50.3079C51.7044 50.3079 50.959 50.5077 50.2785 50.9074C49.6087 51.2963 49.074 51.8256 48.6743 52.4954C48.2746 53.1651 48.0748 53.9105 48.0748 54.7315V64.2106H45.3526V48.007H48.0748V50.0324C48.6473 49.2762 49.3711 48.6767 50.2461 48.2338C51.1211 47.7801 52.0717 47.5532 53.0979 47.5532C54.3078 47.5532 55.4096 47.8503 56.4034 48.4444C57.4081 49.0278 58.202 49.8164 58.7854 50.8102C59.3795 51.804 59.6766 52.9112 59.6766 54.1319Z" fill="#2F39D3"/>
<path d="M38.547 64.2106V41.5255H41.2693V64.2106H38.547Z" fill="#2F39D3"/>
<path d="M68.1187 64.5184C67.2437 64.486 66.3903 64.324 65.5585 64.0323C64.7375 63.7299 64.0137 63.3248 63.3872 62.8171C62.7715 62.2985 62.3232 61.7044 62.0423 61.0347L64.3756 60.03C64.5377 60.3973 64.8293 60.743 65.2506 61.0671C65.6719 61.3911 66.158 61.6504 66.7089 61.8448C67.2599 62.0393 67.8162 62.1365 68.3779 62.1365C68.972 62.1365 69.5284 62.0447 70.0469 61.861C70.5654 61.6774 70.9867 61.4073 71.3108 61.0509C71.6456 60.6836 71.8131 60.2461 71.8131 59.7384C71.8131 59.1983 71.6294 58.777 71.2622 58.4745C70.9057 58.1612 70.452 57.9182 69.9011 57.7453C69.3609 57.5617 68.81 57.3888 68.2483 57.2268C67.1356 56.9459 66.1418 56.6111 65.2668 56.2222C64.3918 55.8225 63.7005 55.3202 63.1928 54.7152C62.6958 54.0995 62.4474 53.3163 62.4474 52.3657C62.4474 51.3611 62.7228 50.4915 63.2738 49.7569C63.8355 49.0224 64.5701 48.4552 65.4775 48.0556C66.3849 47.6559 67.3571 47.456 68.3941 47.456C69.7012 47.456 70.8949 47.7369 71.9751 48.2986C73.0554 48.8603 73.8601 49.6219 74.3895 50.5833L72.202 51.8634C72.0183 51.4745 71.7375 51.1342 71.3594 50.8426C70.9813 50.5401 70.5492 50.3025 70.0631 50.1296C69.577 49.9568 69.0801 49.865 68.5724 49.8542C67.9458 49.8326 67.3571 49.9136 66.8062 50.0972C66.266 50.2809 65.8285 50.5617 65.4937 50.9398C65.1696 51.3071 65.0076 51.7662 65.0076 52.3171C65.0076 52.8572 65.1804 53.2677 65.5261 53.5486C65.8826 53.8295 66.3417 54.0563 66.9034 54.2291C67.4759 54.3912 68.0971 54.5802 68.7668 54.7963C69.7498 55.1095 70.668 55.4714 71.5214 55.8819C72.3748 56.2924 73.0608 56.8055 73.5793 57.4213C74.1086 58.037 74.3679 58.7986 74.3571 59.706C74.3571 60.6998 74.06 61.5694 73.4659 62.3147C72.8717 63.0493 72.0993 63.611 71.1487 63.9999C70.2089 64.3888 69.1989 64.5616 68.1187 64.5184Z" fill="#2F39D3"/>
<path d="M77.1117 58.0532V48.007H79.8339V57.4537C79.8339 58.2746 80.0337 59.02 80.4334 59.6898C80.8331 60.3595 81.3678 60.8942 82.0376 61.2939C82.7181 61.6828 83.4635 61.8772 84.2737 61.8772C85.0946 61.8772 85.8346 61.6828 86.4936 61.2939C87.1633 60.8942 87.698 60.3595 88.0977 59.6898C88.4974 59.02 88.6972 58.2746 88.6972 57.4537V48.007H91.4195L91.4357 64.2106H88.7135L88.6972 62.1527C88.1247 62.9089 87.401 63.5138 86.526 63.9675C85.651 64.4104 84.7058 64.6319 83.6903 64.6319C82.4805 64.6319 81.3732 64.3402 80.3686 63.7569C79.3748 63.1627 78.5808 62.3688 77.9867 61.3749C77.4033 60.3811 77.1117 59.2739 77.1117 58.0532Z" fill="#2F39D3"/>
<path d="M105.274 64.6319C103.74 64.6319 102.297 64.3294 100.947 63.7245C99.5969 63.1087 98.4086 62.2661 97.3824 61.1967C96.367 60.1165 95.5676 58.8634 94.9843 57.4375C94.4117 56.0115 94.1255 54.4884 94.1255 52.868C94.1255 51.2477 94.4117 49.7245 94.9843 48.2986C95.5676 46.8727 96.367 45.625 97.3824 44.5556C98.4086 43.4753 99.5969 42.6327 100.947 42.0278C102.297 41.4121 103.74 41.1042 105.274 41.1042C107.11 41.1042 108.801 41.5309 110.345 42.3843C111.89 43.2377 113.17 44.3719 114.186 45.7871L111.771 47.0833C111.015 46.0895 110.059 45.3009 108.903 44.7176C107.758 44.1235 106.548 43.8264 105.274 43.8264C104.096 43.8264 102.994 44.0641 101.968 44.5394C100.953 45.0147 100.061 45.6682 99.2944 46.5C98.5275 47.3318 97.9279 48.2932 97.4958 49.3843C97.0637 50.4753 96.8477 51.6366 96.8477 52.868C96.8477 54.1103 97.0637 55.277 97.4958 56.368C97.9387 57.4591 98.5437 58.4205 99.3106 59.2523C100.088 60.084 100.985 60.7376 102 61.2129C103.027 61.6774 104.118 61.9097 105.274 61.9097C106.591 61.9097 107.812 61.6126 108.936 61.0185C110.07 60.4135 111.015 59.6249 111.771 58.6527L114.186 59.9652C113.17 61.3803 111.89 62.5146 110.345 63.368C108.801 64.2106 107.11 64.6319 105.274 64.6319Z" fill="#2F39D3"/>
<path d="M130.973 54.1319V64.2106H128.25V54.7315C128.25 53.9105 128.05 53.1651 127.651 52.4954C127.251 51.8256 126.716 51.2963 126.047 50.9074C125.377 50.5077 124.631 50.3079 123.811 50.3079C123 50.3079 122.255 50.5077 121.574 50.9074C120.905 51.2963 120.37 51.8256 119.97 52.4954C119.571 53.1651 119.371 53.9105 119.371 54.7315V64.2106H116.649V39.9051H119.371V50.0324C119.943 49.2762 120.667 48.6767 121.542 48.2338C122.417 47.7801 123.368 47.5532 124.394 47.5532C125.604 47.5532 126.706 47.8503 127.699 48.4444C128.704 49.0278 129.498 49.8164 130.081 50.8102C130.675 51.804 130.973 52.9112 130.973 54.1319Z" fill="#2F39D3"/>
<path d="M141.602 64.6319C140.111 64.6319 138.75 64.2484 137.519 63.4814C136.298 62.7144 135.321 61.6882 134.586 60.4027C133.862 59.1064 133.5 57.6751 133.5 56.1088C133.5 54.9205 133.711 53.8132 134.132 52.787C134.554 51.75 135.131 50.8426 135.866 50.0648C136.611 49.2762 137.476 48.6605 138.459 48.2176C139.442 47.7747 140.489 47.5532 141.602 47.5532C142.823 47.5532 143.941 47.8017 144.956 48.2986C145.982 48.7847 146.857 49.4653 147.581 50.3403C148.316 51.2153 148.861 52.2307 149.218 53.3866C149.585 54.5424 149.72 55.7793 149.623 57.0972H136.401C136.53 58.0154 136.833 58.8364 137.308 59.5601C137.783 60.2731 138.388 60.8402 139.123 61.2615C139.868 61.6828 140.695 61.8989 141.602 61.9097C142.574 61.9097 143.455 61.6612 144.243 61.1643C145.032 60.6566 145.669 59.9652 146.155 59.0902L148.926 59.7384C148.278 61.1751 147.3 62.3526 145.993 63.2708C144.686 64.1782 143.222 64.6319 141.602 64.6319ZM136.32 54.9583H146.884C146.798 54.0509 146.506 53.2245 146.009 52.4791C145.513 51.723 144.881 51.118 144.114 50.6643C143.347 50.2106 142.51 49.9838 141.602 49.9838C140.695 49.9838 139.863 50.2052 139.107 50.6481C138.351 51.091 137.724 51.6906 137.227 52.4467C136.741 53.1921 136.439 54.0293 136.32 54.9583Z" fill="#2F39D3"/>
<path d="M163.461 59.9328L165.891 61.2453C165.157 62.2715 164.222 63.0925 163.088 63.7083C161.965 64.324 160.744 64.6319 159.426 64.6319C157.935 64.6319 156.574 64.2484 155.343 63.4814C154.122 62.7144 153.144 61.6882 152.41 60.4027C151.686 59.1064 151.324 57.6751 151.324 56.1088C151.324 54.9205 151.535 53.8132 151.956 52.787C152.378 51.75 152.955 50.8426 153.69 50.0648C154.435 49.2762 155.3 48.6605 156.283 48.2176C157.266 47.7747 158.313 47.5532 159.426 47.5532C160.744 47.5532 161.965 47.8611 163.088 48.4769C164.222 49.0926 165.157 49.919 165.891 50.956L163.461 52.2685C162.942 51.6312 162.327 51.1396 161.614 50.794C160.901 50.4483 160.171 50.2755 159.426 50.2755C158.421 50.2755 157.509 50.5455 156.688 51.0856C155.877 51.615 155.235 52.3225 154.759 53.2083C154.284 54.0941 154.046 55.0609 154.046 56.1088C154.046 57.1566 154.284 58.1234 154.759 59.0092C155.246 59.8842 155.894 60.5864 156.704 61.1157C157.525 61.645 158.432 61.9097 159.426 61.9097C160.225 61.9097 160.976 61.726 161.678 61.3587C162.381 60.9915 162.975 60.5161 163.461 59.9328Z" fill="#2F39D3"/>
<path d="M183.262 64.2106H180.134L175.824 56.7731L172.843 60.3379V64.2106H170.12V39.9051H172.843V56.1088L179.632 48.007H183.181L177.671 54.5694L183.262 64.2106Z" fill="#2F39D3"/>
<defs>
<linearGradient id="paint0_linear_6013_157" x1="32.0672" y1="22.0826" x2="32.0672" y2="32.5295" gradientUnits="userSpaceOnUse">
<stop stop-color="#2F39D3"/>
<stop offset="1" stop-color="#2F39D3"/>
</linearGradient>
<linearGradient id="paint1_linear_6013_157" x1="1.80582" y1="39.8158" x2="21.1927" y2="34.3561" gradientUnits="userSpaceOnUse">
<stop stop-color="#2F39D3"/>
<stop offset="1" stop-color="#2F39D3"/>
</linearGradient>
</defs>
</svg>
