<svg width="88" height="88" viewBox="0 0 88 88" fill="none" xmlns="http://www.w3.org/2000/svg">
<mask id="mask0_6020_30273" style="mask-type:alpha" maskUnits="userSpaceOnUse" x="0" y="0" width="88" height="88">
<rect width="88" height="88" fill="#D9D9D9"/>
</mask>
<g mask="url(#mask0_6020_30273)">
<path d="M25.3277 81.7669C23.6771 81.7669 22.2819 81.197 21.1422 80.0573C20.0025 78.9175 19.4326 77.5224 19.4326 75.8718V12.1286C19.4326 10.478 20.0025 9.08283 21.1422 7.94311C22.2819 6.80338 23.6771 6.23352 25.3277 6.23352H62.6709C64.3215 6.23352 65.7166 6.80338 66.8564 7.94311C67.9961 9.08283 68.566 10.478 68.566 12.1286V75.8718C68.566 77.5224 67.9961 78.9175 66.8564 80.0573C65.7166 81.197 64.3215 81.7669 62.6709 81.7669H25.3277ZM24.1993 66.9169H63.7993V21.0835H24.1993V66.9169Z" fill="#2F39D3"/>
</g>
</svg>
